<svg width="48" height="88" viewBox="0 0 48 88" fill="none" xmlns="http://www.w3.org/2000/svg">
<g filter="url(#filter0_d_2632_16)">
<path d="M24 79.3334L4 53.869L4 12.6667L44 12.6667L44 53.869L24 79.3334Z" fill="#05B394"/>
</g>
<path d="M14.9146 51V23.976H24.1786C25.4266 23.976 26.6426 24.072 27.8266 24.264C29.0426 24.424 30.1306 24.76 31.0906 25.272C32.0506 25.752 32.8186 26.472 33.3946 27.432C33.9706 28.36 34.2586 29.608 34.2586 31.176C34.2586 32.2 34.0666 33.16 33.6826 34.056C33.2986 34.92 32.5786 35.624 31.5226 36.168C30.4986 36.712 29.0266 37 27.1066 37.032V37.176C29.3466 37.208 31.0586 37.544 32.2426 38.184C33.4586 38.792 34.2906 39.608 34.7386 40.632C35.1866 41.656 35.4106 42.76 35.4106 43.944C35.4106 45.512 35.0906 46.76 34.4506 47.688C33.8426 48.616 33.0106 49.32 31.9546 49.8C30.9306 50.28 29.7946 50.6 28.5466 50.76C27.2986 50.92 26.0506 51 24.8026 51H14.9146ZM17.0746 36.12H23.9866C25.6186 36.12 27.0266 36.024 28.2106 35.832C29.4266 35.608 30.3546 35.16 30.9946 34.488C31.6666 33.784 32.0026 32.712 32.0026 31.272C32.0026 29.64 31.6346 28.456 30.8986 27.72C30.1626 26.952 29.1866 26.456 27.9706 26.232C26.7546 26.008 25.4426 25.896 24.0346 25.896H17.0746V36.12ZM17.0746 49.128H24.7066C26.2746 49.128 27.6986 49.016 28.9786 48.792C30.2586 48.536 31.2666 48.024 32.0026 47.256C32.7706 46.488 33.1546 45.336 33.1546 43.8C33.1546 42.168 32.7386 40.952 31.9066 40.152C31.1066 39.32 30.0026 38.76 28.5946 38.472C27.2186 38.152 25.6986 37.992 24.0346 37.992H17.0746V49.128Z" fill="white"/>
<defs>
<filter id="filter0_d_2632_16" x="0" y="12.6667" width="48" height="74.6667" filterUnits="userSpaceOnUse" color-interpolation-filters="sRGB">
<feFlood flood-opacity="0" result="BackgroundImageFix"/>
<feColorMatrix in="SourceAlpha" type="matrix" values="0 0 0 0 0 0 0 0 0 0 0 0 0 0 0 0 0 0 127 0" result="hardAlpha"/>
<feOffset dy="4"/>
<feGaussianBlur stdDeviation="2"/>
<feColorMatrix type="matrix" values="0 0 0 0 0 0 0 0 0 0 0 0 0 0 0 0 0 0 0.25 0"/>
<feBlend mode="normal" in2="BackgroundImageFix" result="effect1_dropShadow_2632_16"/>
<feBlend mode="normal" in="SourceGraphic" in2="effect1_dropShadow_2632_16" result="shape"/>
</filter>
</defs>
</svg>
